<?xml version="1.0" encoding="UTF-8" standalone="no"?>
<svg width="879px" height="672px" viewBox="0 0 879 672" version="1.1" xmlns="http://www.w3.org/2000/svg" xmlns:xlink="http://www.w3.org/1999/xlink" xmlns:sketch="http://www.bohemiancoding.com/sketch/ns">
    <!-- Generator: Sketch 3.0.3 (7891) - http://www.bohemiancoding.com/sketch -->
    <title>Untitled</title>
    <desc>Created with Sketch.</desc>
    <defs></defs>
    <g id="Page-1" stroke="none" stroke-width="1" fill="none" fill-rule="evenodd" sketch:type="MSPage">
        <g id="cat-black" sketch:type="MSLayerGroup" transform="translate(1.000000, 1.000000)" fill="#FFFFFF">
            <g id="layer1" transform="translate(0.000000, -0.267700)" sketch:type="MSShapeGroup">
                <path d="M669.74586,670.2762 C554.69081,621.43891 433.37928,589.26371 309.61042,569.22425 C232.28243,556.73891 153.58527,553.08499 75.47501,559.03146 C93.97942,550.26513 113.49381,540.84563 132.93405,535.11007 C140.6018,531.43964 156.27647,527.14314 167.31603,523.70435 C204.88248,512.76567 243.9313,506.61135 283.13843,504.86245 C265.29569,515.67567 234.43509,544.39581 273.63802,534.79977 C322.83649,531.40592 372.65816,534.11485 422.11177,542.54645 C403.1269,541.80779 368.94954,561.68562 409.13367,562.38574 C437.92333,568.49595 468.88124,576.96912 495.3385,585.91497 C515.60513,591.15705 538.72623,600.60933 560.19781,607.55456 C577.70558,615.69471 602.16444,625.85321 581.2637,598.71781 C571.13257,583.06127 567.90389,535.35838 560.43433,576.04618 C557.5559,611.88361 544.36891,513.25256 530.54213,567.34738 C516.15309,552.01662 506.5157,505.24816 534.8958,490.55557 C545.63927,483.19419 590.56468,480.76971 582.32132,486.87237 C548.96604,508.66122 621.19783,488.53089 632.27701,508.93232 C640.77247,525.3692 644.44783,533.81685 663.1183,516.17933 C671.08383,515.77257 685.13558,547.91617 701.68556,525.52828 C703.81129,498.0529 717.02154,549.87884 718.34618,514.01262 C709.17195,483.36416 738.77445,532.8895 733.67568,498.15231 C738.17807,482.64251 752.3451,515.21446 743.4026,484.98418 C723.03672,456.87978 700.09731,481.62806 691.04208,504.16468 C687.83515,474.07982 672.26674,522.6974 673.30799,491.79325 C660.90157,506.0982 654.71288,506.98173 648.59018,490.08386 C620.73553,497.08591 640.6844,456.02284 610.04991,453.1325 C579.57877,430.22117 558.20783,395.88977 555.2826,357.47478 C540.40185,361.8289 528.09148,420.95324 527.92122,382.16919 C533.46311,360.21984 543.97499,342.29068 515.24384,360.47866 C500.2813,367.72856 464.22417,399.0964 494.04383,366.48181 C501.02399,357.20263 542.36746,323.79554 504.10609,339.27624 C477.02793,347.34089 505.8172,333.70786 513.9983,327.70924 C535.07255,313.63969 571.39444,303.41644 583.30347,285.23442 C565.39779,285.64003 543.66811,303.50751 524.25177,310.90288 C490.69895,328.76918 457.29341,347.10287 424.45789,366.09584 C472.62797,327.05954 525.96314,293.923 581.62486,266.53285 C572.74085,241.88435 523.37419,276.30198 499.84793,277.00491 C471.82384,285.18818 448.15072,295.05329 420.96946,306.22168 C406.04808,312.63355 358.27829,338.39693 395.96169,315.50026 C454.47095,281.14689 518.14974,258.55946 583.58763,241.14323 C599.69131,204.53591 536.74307,230.42636 515.36714,226.1033 C461.09581,231.13833 407.40549,244.02951 355.15787,257.66199 C430.8728,229.27677 513.18091,218.09415 594.47477,212.51034 C627.40854,193.92501 556.00129,199.41477 540.41698,194.63258 C502.93179,190.64919 438.39389,192.06678 416.35426,190.55334 C495.89039,186.93152 576.81488,184.06246 655.44737,198.04571 C677.47874,199.96656 696.83029,224.49426 660.7851,219.96601 C645.68933,219.98201 589.50639,222.20149 629.9576,228.75142 C660.02264,218.37733 655.44039,238.95711 631.9234,244.2508 C615.89479,254.26804 669.13726,234.30965 682.42696,237.89305 C729.21849,245.02928 599.41527,259.7141 662.60636,257.82818 C699.89673,252.68569 734.66384,266.72617 768.51138,278.0652 C803.40056,277.56416 798.24756,208.58003 763.21437,204.59916 C743.14265,201.11304 708.31992,167.30479 730.44649,152.73486 C698.98478,128.05153 758.27104,137.861 765.39193,154.3614 C761.02646,159.8249 718.58534,165.80325 753.79194,176.23103 C767.69844,176.50223 802.08864,202.50261 772.67988,178.0149 C727.26966,155.66482 807.45484,176.4437 822.45037,165.66683 C831.73962,179.36194 795.47044,188.44885 812.70009,209.11596 C811.11272,231.09816 806.09249,260.18107 820.79326,230.18202 C812.67228,257.18551 805.26657,278.79332 836.86511,288.2064 C841.68506,299.17347 829.28958,326.82491 841.64619,300.91964 C850.79024,270.41471 877.72525,226.12325 843.81093,201.94813 C824.92873,198.68124 817.55187,215.16864 819.34489,193.10925 C822.81948,183.54852 831.38487,175.38732 829.80698,167.79967 C828.22909,160.21202 820.99478,155.52445 806.33054,159.89052 C777.6032,161.03607 762.10372,123.69162 728.06835,128.72885 C684.40121,128.40148 757.73321,113.8305 771.93517,123.69538 C793.42251,146.14355 809.11072,110.67715 778.20927,106.51464 C758.44953,103.16706 748.99452,106.35836 731.30978,90.48905 C704.51526,100.68301 682.77482,65.57171 655.32446,54.49884 C634.10279,36.73391 658.85479,77.61823 632.35764,57.49396 C613.93298,47.79855 590.14914,53.52767 620.81868,64.26786 C643.1209,67.27177 674.21522,92.83175 680.73123,103.50981 C646.95159,79.14103 602.60452,85.06931 569.78717,59.57761 C554.70709,51.6665 529.7535,47.92204 560.47511,61.27563 C607.6756,88.35245 538.41447,72.20472 519.3257,82.97904 C501.36255,85.47212 457.47392,100.56414 454.26993,99.06591 C468.39326,83.49245 511.87031,76.05714 514.20024,63.8311 C480.41213,56.97115 444.05565,82.27096 418.78241,92.81438 C430.74264,79.25439 482.42084,52.72137 435.60108,56.06192 C436.47031,46.54107 481.98683,56.38177 493.28151,39.07743 C452.04131,36.51881 411.07285,50.87707 374.68933,67.60115 C395.84728,74.82753 407.16767,97.87032 374.81069,91.06019 C352.40145,90.42038 331.05074,115.17005 327.39474,84.67128 C284.75149,76.81314 244.40344,101.94398 206.25878,117.08947 C182.88634,126.79767 147.33812,144.55031 134.40344,155.10638 C166.76351,147.6365 192.6747,144.10921 215.50868,127.63877 C228.92331,117.96261 293.38075,117.23336 247.10372,139.2311 C203.56958,159.10244 286.31862,136.24883 276.18208,169.25219 C289.68888,162.85422 315.40517,132.89125 282.69656,135.91726 C318.82939,120.70669 354.84306,103.02703 394.09155,99.69031 C402.55759,114.51442 356.4192,132.64217 339.46913,143.00747 C297.67547,168.56509 380.5967,141.97197 341.83745,163.29626 C322.71662,175.16182 301.33542,197.4292 284.39344,216.62945 C270.58676,228.45852 246.57536,287.00083 257.81346,236.76923 C274.61259,198.61242 220.37441,249.97738 212.00266,260.71213 C184.29606,289.72234 164.26047,326.22295 144.84339,361.00948 C164.10523,349.30237 183.52507,331.07053 205.8374,321.8327 C170.70305,364.20566 128.61172,404.78369 113.03112,459.10052 C121.12848,485.98945 192.87839,486.24069 181.82342,490.75963 C122.93868,504.33307 66.83362,530.00446 13.442449,557.66059 C-14.434708,579.87703 8.028354,546.79341 14.059624,530.23307 C47.46768,457.2714 87.88785,387.07385 137.774,323.80123 C165.03695,286.79157 195.04676,251.54992 229.39618,220.90324 C214.33415,208.91613 166.0774,219.65722 191.62235,207.13749 C206.63256,199.7809 129.10956,210.18829 152.46516,194.56062 C176.78032,178.29089 82.28498,187.29193 59.3759,164.21883 C105.75629,169.14836 140.15622,132.3304 180.62833,116.78069 C216.55692,99.45641 254.15792,86.07655 290.54117,69.83003 C322.49836,55.5599 359.4567,62.23548 391.83031,46.10193 C422.97128,30.58268 460.54516,27.10736 495.96431,26.58384 C450.41125,0.33031 554.11434,39.8334 506.75518,7.32384 C519.38464,5.47235 551.97584,32.50177 538.07838,-0.05158 C553.18746,20.21103 610.91947,43.1775 618.38018,25.63541 C620.05459,19.61386 650.69896,38.99008 664.21482,41.66081 C699.97492,46.22407 732.92845,71.50537 759.10186,84.19856 C769.15778,76.45845 788.35978,67.8323 772.58904,86.8184 C789.00073,85.28281 812.36474,75.98921 791.60429,93.88556 C824.71729,111.99864 799.25675,146.12845 836.5258,156.88075 C855.63848,170.27635 823.23915,191.68143 854.81322,196.61483 C864.2273,206.05364 891.74041,242.67777 869.0496,229.12111 C856.66062,249.06993 888.83276,285.80419 861.08345,274.38491 C860.66998,287.23972 867.28525,326.38153 853.44807,298.26861 C833.70804,316.36108 846.07944,339.30306 846.3368,359.79804 C838.62868,334.23507 821.46504,329.49274 812.3447,356.04429 C783.28557,399.03027 814.14882,307.79622 770.51041,325.02654 C740.23355,307.93601 731.28523,352.12617 713.18616,352.70695 C712.14634,311.2064 698.44642,396.80073 711.62915,409.61155 C721.94341,441.26716 747.96018,413.66549 750.24996,413.48627 C737.90128,453.40035 761.65705,488.79799 751.79515,528.16356 C735.55495,515.17535 731.94631,568.07305 724.05413,544.32877 C716.28624,555.66812 676.07102,557.77657 680.33401,558.31249 C673.29473,536.7629 653.96474,578.23063 652.07004,545.25344 C630.88479,546.12628 592.81354,525.86017 581.53519,553.1117 C589.36046,604.72018 632.02006,642.28341 671.86367,671.0767 L669.74583,670.2762 L669.74586,670.2762 L669.74586,670.2762 Z M678.7463,453.57434 C692.36199,414.41119 687.62351,414.37082 667.36368,445.84628 C651.97926,448.96956 672.79145,465.93471 678.7463,453.57434 L678.7463,453.57434 Z M731.76327,455.08779 C741.24714,443.72662 749.60882,408.38141 729.22255,438.1266 C721.8192,440.15173 720.86196,461.21556 731.76327,455.08779 L731.76327,455.08779 Z M711.72271,432.42523 C707.86177,419.36762 686.71949,397.41728 695.22754,377.79651 C706.70703,357.52825 694.29312,309.65259 676.45775,346.28142 C657.03732,327.94852 610.96023,324.16435 621.00323,366.91488 C628.55085,392.50299 653.62932,458.35003 684.18714,411.04962 C689.31081,392.95909 690.751,446.33181 711.72271,432.42523 L711.72271,432.42523 Z M658.93281,416.61418 C648.18159,402.31027 639.8083,351.96748 654.37947,392.17277 C657.26538,399.40474 676.77187,423.72238 658.93281,416.61418 L658.93281,416.61418 Z M810.16701,342.04853 C831.94945,325.63909 800.70342,303.64896 805.24529,330.404 C806.64668,333.48829 803.50652,358.83471 810.16701,342.04853 L810.16701,342.04853 Z M726.79328,333.33724 C739.88414,317.62351 729.10534,280.02718 719.24468,307.10535 C723.8522,313.95185 715.60194,346.77087 726.79328,333.33724 L726.79328,333.33724 Z M826.15273,311.97473 C817.58056,267.99547 760.86984,307.84958 733.59132,282.2907 C718.23952,272.12215 679.24638,265.3329 674.56624,271.42023 C692.57143,280.52553 687.72253,301.22787 716.96136,289.12184 C740.86249,291.69841 761.40363,306.82073 787.96025,305.37591 C801.51539,306.10139 794.5417,290.52851 808.48325,305.20237 C815.37903,301.85457 823.03974,317.42261 826.15273,311.97473 L826.15273,311.97473 Z M348.97215,503.15433 C336.16905,490.55081 325.50649,443.06396 318.6346,486.26632 C312.16597,494.77833 304.44861,450.8404 310.47518,437.61701 C312.83326,423.24376 334.99516,389.21411 327.25862,424.32768 C318.70761,472.13345 364.75391,425.10825 376.15948,430.87146 C353.1367,450.27506 359.81931,467.47687 387.85382,456.41097 C402.41709,451.40912 446.59664,426.33007 415.43594,454.66728 C393.19709,484.81239 463.9367,464.25188 473.79112,463.96501 C492.87028,461.7923 552.99347,456.08045 501.66586,464.39418 C461.92348,471.3726 423.35989,484.77222 384.34017,493.72992 C404.56244,463.6163 331.13025,478.15458 352.94094,505.59974 L352.2861,505.88232 L348.97215,503.15433 L348.97215,503.15433 Z M290.96038,447.93261 C273.54696,425.94441 274.70747,384.02303 266.20909,367.7939 C258.36331,381.58482 253.50944,413.21453 254.23456,377.6513 C253.06222,340.12811 262.85542,302.76293 279.7123,269.36324 C277.54052,289.64839 268.53902,344.48542 278.2782,343.82793 C291.26504,326.25154 311.12832,312.72464 294.34123,342.58081 C287.6943,365.06959 281.69947,400.03519 314.70212,381.79237 C339.76893,381.92444 292.14206,406.83876 293.82825,427.00762 C293.64277,430.13674 296.6263,455.68242 290.96038,447.93261 L290.96038,447.93261 Z M740.83054,203.4107 C704.94861,188.73281 665.07091,189.85248 626.88767,189.54099 C677.43716,161.68852 613.20287,176.01666 609.09163,176.36818 C623.57078,166.43683 664.87103,164.80923 656.01675,152.51441 C683.61143,142.98933 685.71027,167.96843 671.99214,174.41791 C710.3616,174.37081 690.21062,149.19916 678.62995,137.21551 C710.13096,121.50138 717.52406,168.84169 729.81768,189.27236 C731.25474,191.20849 753.22233,209.97777 740.83054,203.4107 L740.83054,203.4107 Z M595.51723,162.07511 C562.24997,150.54308 526.12586,161.84618 491.68553,160.91467 C461.08885,164.05125 466.35919,159.8257 490.36001,156.88311 C515.61621,152.94356 541.40088,148.77462 567.22871,148.66184 C542.74957,135.74004 565.788,109.78682 591.28725,115.04267 C593.07539,120.90034 592.76883,122.94484 594.0831,134.11519 C595.42526,126.37565 599.74162,120.69152 600.71063,117.30098 C605.89228,118.48416 608.32837,119.79442 611.20588,121.71066 C616.96089,125.54313 620.14859,135.16963 612.56358,142.86663 C608.09329,148.54815 604.56642,150.10333 596.18166,151.85013 C596.42221,154.30393 602.40975,156.66656 615.41288,153.49951 C653.39238,147.96395 601.0875,166.40816 595.51723,162.07511 L595.51723,162.07511 Z M388.73749,144.94759 C421.41834,126.19671 456.36741,110.62067 492.95572,100.86319 C460.94978,125.88132 528.25932,95.10003 541.47337,97.62671 C563.8213,94.97063 582.20711,93.00616 603.91513,99.12122 C621.61549,101.33449 644.6528,142.59629 626.88577,103.68476 C594.00543,77.36323 641.39461,97.96386 656.0764,105.29755 C671.24027,113.2984 712.55903,131.43138 673.43858,129.31797 C669.70624,145.53246 637.7739,149.71189 626.98582,141.08578 C620.32488,103.98285 562.66402,99.92788 546.09875,131.00554 C529.90873,115.49253 489.5514,111.07101 479.09317,119.2955 C503.61597,123.94055 508.91017,125.66264 482.27782,125.42606 C451.77847,125.79807 411.27728,138.72999 388.73749,144.94759 L388.73749,144.94759 Z" id="path3617"></path>
            </g>
        </g>
    </g>
</svg>