<?xml version="1.0" encoding="UTF-8" standalone="no"?>
<!-- Created with Inkscape (http://www.inkscape.org/) -->

<svg
   xmlns:dc="http://purl.org/dc/elements/1.1/"
   xmlns:cc="http://creativecommons.org/ns#"
   xmlns:rdf="http://www.w3.org/1999/02/22-rdf-syntax-ns#"
   xmlns:svg="http://www.w3.org/2000/svg"
   xmlns="http://www.w3.org/2000/svg"
   xmlns:sodipodi="http://sodipodi.sourceforge.net/DTD/sodipodi-0.dtd"
   xmlns:inkscape="http://www.inkscape.org/namespaces/inkscape"
   width="1052.3622"
   height="744.09448"
   id="svg2"
   version="1.1"
   inkscape:version="0.47 r22583"
   sodipodi:docname="New document 1">
  <sodipodi:namedview
     id="base"
     pagecolor="#ffffff"
     bordercolor="#666666"
     borderopacity="1.0"
     inkscape:pageopacity="0.0"
     inkscape:pageshadow="2"
     inkscape:zoom="0.55643521"
     inkscape:cx="797.3102"
     inkscape:cy="262.25769"
     inkscape:document-units="px"
     inkscape:current-layer="layer1"
     showgrid="false"
     inkscape:window-width="1280"
     inkscape:window-height="968"
     inkscape:window-x="-4"
     inkscape:window-y="764"
     inkscape:window-maximized="1" />
  <defs
     id="defs4">
    <inkscape:perspective
       id="perspective10"
       inkscape:persp3d-origin="372.04724 : 350.78739 : 1"
       inkscape:vp_z="744.09448 : 526.18109 : 1"
       inkscape:vp_y="0 : 1000 : 0"
       inkscape:vp_x="0 : 526.18109 : 1"
       sodipodi:type="inkscape:persp3d" />
    <inkscape:perspective
       id="perspective3611"
       inkscape:persp3d-origin="0.5 : 0.33333333 : 1"
       inkscape:vp_z="1 : 0.5 : 1"
       inkscape:vp_y="0 : 1000 : 0"
       inkscape:vp_x="0 : 0.5 : 1"
       sodipodi:type="inkscape:persp3d" />
  </defs>
  <metadata
     id="metadata7">
    <rdf:RDF>
      <cc:Work
         rdf:about="">
        <dc:format>image/svg+xml</dc:format>
        <dc:type
           rdf:resource="http://purl.org/dc/dcmitype/StillImage" />
        <dc:title></dc:title>
      </cc:Work>
    </rdf:RDF>
  </metadata>
  <g
     id="layer1"
     inkscape:groupmode="layer"
     inkscape:label="Layer 1"
     transform="translate(0,-308.2677)">
    <path
       style="fill:#000000;stroke:none"
       d="M 746.74586,1015.2762 C 631.69081,966.43891 510.37928,934.26371 386.61042,914.22425 309.28243,901.73891 230.58527,898.08499 152.47501,904.03146 c 18.50441,-8.76633 38.0188,-18.18583 57.45904,-23.92139 7.66775,-3.67043 23.34242,-7.96693 34.38198,-11.40572 37.56645,-10.93868 76.61527,-17.093 115.8224,-18.8419 -17.84274,10.81322 -48.70334,39.53336 -9.50041,29.93732 49.19847,-3.39385 99.02014,-0.68492 148.47375,7.74668 -18.98487,-0.73866 -53.16223,19.13917 -12.9781,19.83929 28.78966,6.11021 59.74757,14.58338 86.20483,23.52923 20.26663,5.24208 43.38773,14.69436 64.85931,21.63959 17.50777,8.14015 41.96663,18.29865 21.06589,-8.83675 -10.13113,-15.65654 -13.35981,-63.35943 -20.82937,-22.67163 -2.87843,35.83743 -16.06542,-62.79362 -29.8922,-8.6988 -14.38904,-15.33076 -24.02643,-62.09922 4.35367,-76.79181 10.74347,-7.36138 55.66888,-9.78586 47.42552,-3.6832 -33.35528,21.78885 38.87651,1.65852 49.95569,22.05995 8.49546,16.43688 12.17082,24.88453 30.84129,7.24701 7.96553,-0.40676 22.01728,31.73684 38.56726,9.34895 2.12573,-27.47538 15.33598,24.35056 16.66062,-11.51566 -9.17423,-30.64846 20.42827,18.87688 15.3295,-15.86031 4.50239,-15.5098 18.66942,17.06215 9.72692,-13.16813 -20.36588,-28.1044 -43.30529,-3.35612 -52.36052,19.1805 -3.20693,-30.08486 -18.77534,18.53272 -17.73409,-12.37143 -12.40642,14.30495 -18.59511,15.18848 -24.71781,-1.70939 -27.85465,7.00205 -7.90578,-34.06102 -38.54027,-36.95136 -30.47114,-22.91133 -51.84208,-57.24273 -54.76731,-95.65772 -14.88075,4.35412 -27.19112,63.47846 -27.36138,24.69441 5.54189,-21.94935 16.05377,-39.87851 -12.67738,-21.69053 -14.96254,7.2499 -51.01967,38.61774 -21.20001,6.00315 6.98016,-9.27918 48.32363,-42.68627 10.06226,-27.20557 -27.07816,8.06465 1.71111,-5.56838 9.89221,-11.567 21.07425,-14.06955 57.39614,-24.2928 69.30517,-42.47482 -17.90568,0.40561 -39.63536,18.27309 -59.0517,25.66846 -33.55282,17.8663 -66.95836,36.19999 -99.79388,55.19296 48.17008,-39.0363 101.50525,-72.17284 157.16697,-99.56299 -8.88401,-24.6485 -58.25067,9.76913 -81.77693,10.47206 -28.02409,8.18327 -51.69721,18.04838 -78.87847,29.21677 -14.92138,6.41187 -62.69117,32.17525 -25.00777,9.27858 58.50926,-34.35337 122.18805,-56.9408 187.62594,-74.35703 16.10368,-36.60732 -46.84456,-10.71687 -68.22049,-15.03993 -54.27133,5.03503 -107.96165,17.92621 -160.20927,31.55869 75.71493,-28.38522 158.02304,-39.56784 239.3169,-45.15165 32.93377,-18.58533 -38.47348,-13.09557 -54.05779,-17.87776 -37.48519,-3.98339 -102.02309,-2.5658 -124.06272,-4.07924 79.53613,-3.62182 160.46062,-6.49088 239.09311,7.49237 22.03137,1.92085 41.38292,26.44855 5.33773,21.9203 -15.09577,0.016 -71.27871,2.23548 -30.8275,8.78541 30.06504,-10.37409 25.48279,10.20569 1.9658,15.49938 -16.02861,10.01724 37.21386,-9.94115 50.50356,-6.35775 46.79153,7.13623 -83.01169,21.82105 -19.8206,19.93513 37.29037,-5.14249 72.05748,8.89799 105.90502,20.23702 34.88918,-0.50104 29.73618,-69.48517 -5.29701,-73.46604 -20.07172,-3.48612 -54.89445,-37.29437 -32.76788,-51.8643 -31.46171,-24.68333 27.82455,-14.87386 34.94544,1.62654 -4.36547,5.4635 -46.80659,11.44185 -11.59999,21.86963 13.9065,0.2712 48.2967,26.27158 18.88794,1.78387 -45.41022,-22.35008 34.77496,-1.5712 49.77049,-12.34807 9.28925,13.69511 -26.97993,22.78202 -9.75028,43.44913 -1.58737,21.9822 -6.6076,51.06511 8.09317,21.06606 -8.12098,27.00349 -15.52669,48.6113 16.07185,58.02438 4.81995,10.96707 -7.57553,38.61851 4.78108,12.71324 9.14405,-30.50493 36.07906,-74.79639 2.16474,-98.97151 -18.8822,-3.26689 -26.25906,13.22051 -24.46604,-8.83888 3.47459,-9.56073 12.03998,-17.72193 10.46209,-25.30958 -1.57789,-7.58765 -8.8122,-12.27522 -23.47644,-7.90915 -28.72734,1.14555 -44.22682,-36.1989 -78.26219,-31.16167 -43.66714,-0.32737 29.66486,-14.89835 43.86682,-5.03347 21.48734,22.44817 37.17555,-13.01823 6.2741,-17.18074 -19.75974,-3.34758 -29.21475,-0.15628 -46.89949,-16.02559 -26.79452,10.19396 -48.53496,-24.91734 -75.98532,-35.99021 -21.22167,-17.76493 3.53033,23.11939 -22.96682,2.99512 -18.42466,-9.69541 -42.2085,-3.96629 -11.53896,6.7739 22.30222,3.00391 53.39654,28.56389 59.91255,39.24195 -33.77964,-24.36878 -78.12671,-18.4405 -110.94406,-43.9322 -15.08008,-7.91111 -40.03367,-11.65557 -9.31206,1.69802 47.20049,27.07682 -22.06064,10.92909 -41.14941,21.70341 -17.96315,2.49308 -61.85178,17.5851 -65.05577,16.08687 14.12333,-15.57346 57.60038,-23.00877 59.93031,-35.23481 -33.78811,-6.85995 -70.14459,18.43986 -95.41783,28.98328 11.96023,-13.55999 63.63843,-40.09301 16.81867,-36.75246 0.86923,-9.52085 46.38575,0.31985 57.68043,-16.98449 -41.2402,-2.55862 -82.20866,11.79964 -118.59218,28.52372 21.15795,7.22638 32.47834,30.26917 0.12136,23.45904 -22.40924,-0.63981 -43.75995,24.10986 -47.41595,-6.38891 -42.64325,-7.85814 -82.9913,17.2727 -121.13596,32.41819 -23.37244,9.7082 -58.92066,27.46084 -71.85534,38.01691 32.36007,-7.46988 58.27126,-10.99717 81.10524,-27.46761 13.41463,-9.67616 77.87207,-10.40541 31.59504,11.59233 -43.53414,19.87134 39.2149,-2.98227 29.07836,30.02109 13.5068,-6.39797 39.22309,-36.36094 6.51448,-33.33493 36.13283,-15.21057 72.1465,-32.89023 111.39499,-36.22695 8.46604,14.82411 -37.67235,32.95186 -54.62242,43.31716 -41.79366,25.55762 41.12757,-1.0355 2.36832,20.28879 -19.12083,11.86556 -40.50203,34.13294 -57.44401,53.33319 -13.80668,11.82907 -37.81808,70.37138 -26.57998,20.13978 16.79913,-38.15681 -37.43905,13.20815 -45.8108,23.9429 -27.7066,29.01021 -47.74219,65.51082 -67.15927,100.29735 19.26184,-11.70711 38.68168,-29.93895 60.99401,-39.17678 -35.13435,42.37296 -77.22568,82.95099 -92.80628,137.26782 8.09736,26.88893 79.84727,27.14017 68.7923,31.65911 -58.88474,13.57344 -114.9898,39.24483 -168.380971,66.90096 -27.877157,22.21644 -5.414095,-10.86718 0.617175,-27.42752 C 124.46768,802.2714 164.88785,732.07385 214.774,668.80123 c 27.26295,-37.00966 57.27276,-72.25131 91.62218,-102.89799 -15.06203,-11.98711 -63.31878,-1.24602 -37.77383,-13.76575 15.01021,-7.35659 -62.51279,3.0508 -39.15719,-12.57687 24.31516,-16.26973 -70.18018,-7.26869 -93.08926,-30.34179 46.38039,4.92953 80.78032,-31.88843 121.25243,-47.43814 35.92859,-17.32428 73.52959,-30.70414 109.91284,-46.95066 31.95719,-14.27013 68.91553,-7.59455 101.28914,-23.7281 31.14097,-15.51925 68.71485,-18.99457 104.134,-19.51809 -45.55306,-26.25353 58.15003,13.24956 10.79087,-19.26 12.62946,-1.85149 45.22066,25.17793 31.3232,-7.37542 15.10908,20.26261 72.84109,43.22908 80.3018,25.68699 1.67441,-6.02155 32.31878,13.35467 45.83464,16.0254 35.7601,4.56326 68.71363,29.84456 94.88704,42.53775 10.05592,-7.74011 29.25792,-16.36626 13.48718,2.61984 16.41169,-1.53559 39.7757,-10.82919 19.01525,7.06716 33.113,18.11308 7.65246,52.24289 44.92151,62.99519 19.11268,13.3956 -13.28665,34.80068 18.28742,39.73408 9.41408,9.43881 36.92719,46.06294 14.23638,32.50628 -12.38898,19.94882 19.78316,56.68308 -7.96615,45.2638 -0.41347,12.85481 6.2018,51.99662 -7.63538,23.8837 -19.74003,18.09247 -7.36863,41.03445 -7.11127,61.52943 -7.70812,-25.56297 -24.87176,-30.3053 -33.9921,-3.75375 -29.05913,42.98598 1.80412,-48.24807 -41.83429,-31.01775 -30.27686,-17.09053 -39.22518,27.09963 -57.32425,27.68041 -1.03982,-41.50055 -14.73974,44.09378 -1.55701,56.9046 10.31426,31.65561 36.33103,4.05394 38.62081,3.87472 -12.34868,39.91408 11.40709,75.31172 1.54519,114.67729 -16.2402,-12.98821 -19.84884,39.90949 -27.74102,16.16521 -7.76789,11.33935 -47.98311,13.4478 -43.72012,13.98372 -7.03928,-21.54959 -26.36927,19.91814 -28.26397,-13.05905 -21.18525,0.87284 -59.2565,-19.39327 -70.53485,7.85826 7.82527,51.60848 50.48487,89.17171 90.32848,117.965 l -2.11784,-0.8005 3e-5,0 z m 9.00044,-216.70186 c 13.61569,-39.16315 8.87721,-39.20352 -11.38262,-7.72806 -15.38442,3.12328 5.42777,20.08843 11.38262,7.72806 z m 53.01697,1.51345 c 9.48387,-11.36117 17.84555,-46.70638 -2.54072,-16.96119 -7.40335,2.02513 -8.36059,23.08896 2.54072,16.96119 z m -20.04056,-22.66256 c -3.86094,-13.05761 -25.00322,-35.00795 -16.49517,-54.62872 11.47949,-20.26826 -0.93442,-68.14392 -18.76979,-31.51509 -19.42043,-18.3329 -65.49752,-22.11707 -55.45452,20.63346 7.54762,25.58811 32.62609,91.43515 63.18391,44.13474 5.12367,-18.09053 6.56386,35.28219 27.53557,21.37561 z m -52.7899,-15.81105 c -10.75122,-14.30391 -19.12451,-64.6467 -4.55334,-24.44141 2.88591,7.23197 22.3924,31.54961 4.55334,24.44141 z m 151.2342,-74.56565 c 21.78244,-16.40944 -9.46359,-38.39957 -4.92172,-11.64453 1.40139,3.08429 -1.73877,28.43071 4.92172,11.64453 z m -83.37373,-8.71129 c 13.09086,-15.71373 2.31206,-53.31006 -7.5486,-26.23189 4.60752,6.8465 -3.64274,39.66552 7.5486,26.23189 z m 99.35945,-21.36251 c -8.57217,-43.97926 -65.28289,-4.12515 -92.56141,-29.68403 -15.3518,-10.16855 -54.34494,-16.9578 -59.02508,-10.87047 18.00519,9.1053 13.15629,29.80764 42.39512,17.70161 23.90113,2.57657 44.44227,17.69889 70.99889,16.25407 13.55514,0.72548 6.58145,-14.8474 20.523,-0.17354 6.89578,-3.3478 14.55649,12.22024 17.66948,6.77236 z m -477.18058,191.1796 c -12.8031,-12.60352 -23.46566,-60.09037 -30.33755,-16.88801 -6.46863,8.51201 -14.18599,-35.42592 -8.15942,-48.64931 2.35808,-14.37325 24.51998,-48.4029 16.78344,-13.28933 -8.55101,47.80577 37.49529,0.78057 48.90086,6.54378 -23.02278,19.4036 -16.34017,36.60541 11.69434,25.53951 14.56327,-5.00185 58.74282,-30.0809 27.58212,-1.74369 -22.23885,30.14511 48.50076,9.5846 58.35518,9.29773 19.07916,-2.17271 79.20235,-7.88456 27.87474,0.42917 -39.74238,6.97842 -78.30597,20.37804 -117.32569,29.33574 20.22227,-30.11362 -53.20992,-15.57534 -31.39923,11.86982 l -0.65484,0.28258 -3.31395,-2.72799 0,0 z m -58.01177,-55.22172 c -17.41342,-21.9882 -16.25291,-63.90958 -24.75129,-80.13871 -7.84578,13.79092 -12.69965,45.42063 -11.97453,9.8574 -1.17234,-37.52319 8.62086,-74.88837 25.47774,-108.28806 -2.17178,20.28515 -11.17328,75.12218 -1.4341,74.46469 12.98684,-17.57639 32.85012,-31.10329 16.06303,-1.24712 -6.64693,22.48878 -12.64176,57.45438 20.36089,39.21156 25.06681,0.13207 -22.56006,25.04639 -20.87387,45.21525 -0.18548,3.12912 2.79805,28.6748 -2.86787,20.92499 z M 817.83054,548.4107 c -35.88193,-14.67789 -75.75963,-13.55822 -113.94287,-13.86971 50.54949,-27.85247 -13.6848,-13.52433 -17.79604,-13.17281 14.47915,-9.93135 55.7794,-11.55895 46.92512,-23.85377 27.59468,-9.52508 29.69352,15.45402 15.97539,21.9035 38.36946,-0.0471 18.21848,-25.21875 6.63781,-37.2024 31.50101,-15.71413 38.89411,31.62618 51.18773,52.05685 1.43706,1.93613 23.40465,20.70541 11.01286,14.13834 z M 672.51723,507.07511 c -33.26726,-11.53203 -69.39137,-0.22893 -103.8317,-1.16044 -30.59668,3.13658 -25.32634,-1.08897 -1.32552,-4.03156 25.2562,-3.93955 51.04087,-8.10849 76.8687,-8.22127 -24.47914,-12.9218 -1.44071,-38.87502 24.05854,-33.61917 1.78814,5.85767 1.48158,7.90217 2.79585,19.07252 1.34216,-7.73954 5.65852,-13.42367 6.62753,-16.81421 5.18165,1.18318 7.61774,2.49344 10.49525,4.40968 5.75501,3.83247 8.94271,13.45897 1.3577,21.15597 -4.47029,5.68152 -7.99716,7.2367 -16.38192,8.9835 0.24055,2.4538 6.22809,4.81643 19.23122,1.64938 37.9795,-5.53556 -14.32538,12.90865 -19.89565,8.5756 z M 465.73749,489.94759 c 32.68085,-18.75088 67.62992,-34.32692 104.21823,-44.0844 -32.00594,25.01813 35.3036,-5.76316 48.51765,-3.23648 22.34793,-2.65608 40.73374,-4.62055 62.44176,1.49451 17.70036,2.21327 40.73767,43.47507 22.97064,4.56354 -32.88034,-26.32153 14.50884,-5.7209 29.19063,1.61279 15.16387,8.00085 56.48263,26.13383 17.36218,24.02042 -3.73234,16.21449 -35.66468,20.39392 -46.45276,11.76781 -6.66094,-37.10293 -64.3218,-41.1579 -80.88707,-10.08024 -16.19002,-15.51301 -56.54735,-19.93453 -67.00558,-11.71004 24.5228,4.64505 29.817,6.36714 3.18465,6.13056 -30.49935,0.37201 -71.00054,13.30393 -93.54033,19.52153 z"
       id="path3617"
       sodipodi:nodetypes="ccccccccccccccccccccccccccccccccccccccccccccccccccccccccccccccccsccccccccccccccccccccccsccccsccccccccccccssccsscccccccccccccccccccccccccccccccccccccccccccccccscccccccccccccccccccccccccccccccccccccccccccccscccccccccccccccc" />
  </g>
</svg>
