<?xml version="1.0" encoding="UTF-8" standalone="no"?>
<svg width="209px" height="116px" viewBox="0 0 209 116" version="1.1" xmlns="http://www.w3.org/2000/svg" xmlns:xlink="http://www.w3.org/1999/xlink" xmlns:sketch="http://www.bohemiancoding.com/sketch/ns">
    <!-- Generator: Sketch 3.0.3 (7891) - http://www.bohemiancoding.com/sketch -->
    <title>Untitled 2</title>
    <desc>Created with Sketch.</desc>
    <defs></defs>
    <g id="Page-1" stroke="none" stroke-width="1" fill="none" fill-rule="evenodd" sketch:type="MSPage">
        <g id="Layer_x0020_1" sketch:type="MSLayerGroup" fill="#FFFFFF">
            <g id="_75450784" sketch:type="MSShapeGroup">
                <path d="M133.153,57.5829 C133.153,65.4205 130.2916,72.1385 124.61,77.7368 C118.8873,83.3352 112.0038,86.1138 104.0001,86.1138 C95.9136,86.1138 89.0296,83.3352 83.3484,77.7368 C77.6673,72.1385 74.8471,65.4205 74.8471,57.5829 C74.8471,54.0994 75.4692,50.6993 76.6721,47.4647 L106.4466,60.9835 L92.4718,31.4573 C96.1208,29.84 99.9363,29.0108 104.0001,29.0108 C112.0038,29.0108 118.8873,31.7894 124.61,37.3877 C130.2916,42.986 133.153,49.704 133.153,57.5829 L133.153,57.5829 Z M142.5247,57.5829 C142.5247,47.2159 138.7513,38.3413 131.2036,30.9597 C123.6981,23.5785 114.6163,19.8874 104.0001,19.8874 C98.4017,19.8874 93.0938,21.0487 88.0759,23.2881 L84.0949,14.2063 C54.6931,19.2242 33.1707,33.6555 19.5691,57.5829 C23.5501,64.5497 28.3188,70.7289 33.9171,76.1612 C47.4364,89.1823 64.0237,97.3932 83.7217,100.8355 C75.2203,97.02 68.3779,91.2145 63.1945,83.4596 C58.011,75.6635 55.3984,67.0378 55.3984,57.5829 C55.3984,51.819 56.4348,46.2206 58.4253,40.7879 L68.1708,43.8153 C66.3874,48.2939 65.4754,52.8554 65.4754,57.5829 C65.4754,67.9919 69.2488,76.9076 76.7965,84.2477 C84.3021,91.5461 93.3838,95.2371 104.0001,95.2371 C114.6163,95.2371 123.6981,91.5461 131.2036,84.2477 C138.7513,76.9076 142.5247,67.9919 142.5247,57.5829 L142.5247,57.5829 Z M188.431,57.5829 C184.4916,50.616 179.6397,44.3545 173.9998,38.839 C160.3566,25.7346 143.6032,17.5237 123.6981,14.2063 C132.3649,17.8969 139.3317,23.6196 144.5985,31.3329 C149.948,39.2538 152.6017,48.0035 152.6017,57.5829 C152.6017,67.0378 149.9891,75.6635 144.764,83.4596 C139.5389,91.2145 132.6554,97.02 124.1541,100.8355 C153.4726,95.7759 174.9122,81.3863 188.431,57.5829 L188.431,57.5829 Z M208.2534,57.5829 C201.9914,68.8211 194.3614,78.4005 185.2797,86.3626 C163.5084,105.6457 136.4287,115.2667 104.1245,115.2667 C71.8202,115.2667 44.6994,105.6457 22.8448,86.3626 C13.7631,78.4005 6.0915,68.8211 -0.2533,57.5829 C6.0915,46.3034 13.7631,36.6824 22.8448,28.6376 C44.6994,9.3544 71.8202,-0.2666 104.1245,-0.2666 C136.4287,-0.2666 163.5084,9.3544 185.2797,28.6376 C194.3614,36.6824 201.9914,46.3034 208.2534,57.5829 L208.2534,57.5829 Z" id="_75708432"></path>
            </g>
        </g>
    </g>
</svg>